<svg width="32" height="32" viewBox="0 0 32 32" fill="none" xmlns="http://www.w3.org/2000/svg">
<g id="radix-icons:person">
<path id="Vector" fill-rule="evenodd" clip-rule="evenodd" d="M15.9999 1.86671C14.1349 1.86422 12.3318 2.53584 10.9228 3.75782C9.51382 4.97981 8.59392 6.66982 8.3326 8.51648C8.07128 10.3631 8.48613 12.242 9.50073 13.807C10.5153 15.3719 12.0613 16.5175 13.8538 17.0326C11.3066 17.3419 9.12208 18.2422 7.47515 19.8656C5.38021 21.9286 4.31995 25.0027 4.31995 29.0134C4.31995 29.2821 4.42671 29.5399 4.61674 29.7299C4.80678 29.9199 5.06453 30.0267 5.33328 30.0267C5.60203 30.0267 5.85978 29.9199 6.04981 29.7299C6.23985 29.5399 6.34661 29.2821 6.34661 29.0134C6.34661 25.344 7.31301 22.8694 8.89808 21.3078C10.4853 19.744 12.8575 18.9334 15.9999 18.9334C19.1423 18.9334 21.5146 19.744 23.1039 21.3078C24.6869 22.8715 25.6533 25.344 25.6533 29.0134C25.6533 29.2821 25.76 29.5399 25.9501 29.7299C26.1401 29.9199 26.3979 30.0267 26.6666 30.0267C26.9354 30.0267 27.1931 29.9199 27.3831 29.7299C27.5732 29.5399 27.6799 29.2821 27.6799 29.0134C27.6799 25.0027 26.6197 21.9307 24.5226 19.8656C22.8799 18.2443 20.6933 17.3419 18.1461 17.0326C19.9326 16.5117 21.4716 15.3644 22.4809 13.8009C23.4902 12.2375 23.9022 10.3627 23.6415 8.52013C23.3808 6.67757 22.4647 4.99069 21.0612 3.7687C19.6577 2.5467 17.8609 1.87145 15.9999 1.86671ZM10.2933 9.60004C10.2933 8.08654 10.8945 6.63502 11.9647 5.56482C13.0349 4.49461 14.4864 3.89337 15.9999 3.89337C17.5134 3.89337 18.965 4.49461 20.0352 5.56482C21.1054 6.63502 21.7066 8.08654 21.7066 9.60004C21.7066 11.1135 21.1054 12.5651 20.0352 13.6353C18.965 14.7055 17.5134 15.3067 15.9999 15.3067C14.4864 15.3067 13.0349 14.7055 11.9647 13.6353C10.8945 12.5651 10.2933 11.1135 10.2933 9.60004Z" fill="#333333"/>
</g>
</svg>
