<svg width="41" height="40" viewBox="0 0 41 40" fill="none" xmlns="http://www.w3.org/2000/svg">
<g id="pepicons-pencil:people">
<g id="Group">
<path id="Vector" fill-rule="evenodd" clip-rule="evenodd" d="M10.5 18C11.5609 18 12.5783 17.5786 13.3284 16.8284C14.0786 16.0783 14.5 15.0609 14.5 14C14.5 12.9391 14.0786 11.9217 13.3284 11.1716C12.5783 10.4214 11.5609 10 10.5 10C9.43913 10 8.42172 10.4214 7.67157 11.1716C6.92143 11.9217 6.5 12.9391 6.5 14C6.5 15.0609 6.92143 16.0783 7.67157 16.8284C8.42172 17.5786 9.43913 18 10.5 18ZM10.5 20C11.2879 20 12.0681 19.8448 12.7961 19.5433C13.5241 19.2417 14.1855 18.7998 14.7426 18.2426C15.2998 17.6855 15.7417 17.0241 16.0433 16.2961C16.3448 15.5681 16.5 14.7879 16.5 14C16.5 13.2121 16.3448 12.4319 16.0433 11.7039C15.7417 10.9759 15.2998 10.3145 14.7426 9.75736C14.1855 9.20021 13.5241 8.75825 12.7961 8.45672C12.0681 8.15519 11.2879 8 10.5 8C8.9087 8 7.38258 8.63214 6.25736 9.75736C5.13214 10.8826 4.5 12.4087 4.5 14C4.5 15.5913 5.13214 17.1174 6.25736 18.2426C7.38258 19.3679 8.9087 20 10.5 20Z" fill="#333333"/>
<path id="Vector_2" fill-rule="evenodd" clip-rule="evenodd" d="M8.208 17.7922C8.30113 17.8851 8.37501 17.9955 8.42543 18.117C8.47584 18.2384 8.50179 18.3687 8.50179 18.5002C8.50179 18.6318 8.47584 18.762 8.42543 18.8835C8.37501 19.005 8.30113 19.1153 8.208 19.2082L7.532 19.8822C6.23107 21.1835 5.50017 22.9482 5.5 24.7882V28.5002C5.5 28.7654 5.39464 29.0198 5.20711 29.2073C5.01957 29.3949 4.76522 29.5002 4.5 29.5002C4.23478 29.5002 3.98043 29.3949 3.79289 29.2073C3.60536 29.0198 3.5 28.7654 3.5 28.5002V24.7882C3.50028 22.4178 4.44197 20.1445 6.118 18.4682L6.792 17.7922C6.88489 17.6991 6.99524 17.6252 7.11673 17.5748C7.23822 17.5244 7.36847 17.4984 7.5 17.4984C7.63153 17.4984 7.76178 17.5244 7.88327 17.5748C8.00476 17.6252 8.11511 17.6991 8.208 17.7922ZM31.792 17.1922C31.6989 17.2851 31.625 17.3955 31.5746 17.517C31.5242 17.6384 31.4982 17.7687 31.4982 17.9002C31.4982 18.0318 31.5242 18.162 31.5746 18.2835C31.625 18.405 31.6989 18.5153 31.792 18.6082L32.468 19.2822C33.1122 19.9265 33.6233 20.6914 33.9719 21.5331C34.3206 22.3749 34.5 23.2771 34.5 24.1882V28.5002C34.5 28.7654 34.6054 29.0198 34.7929 29.2073C34.9804 29.3949 35.2348 29.5002 35.5 29.5002C35.7652 29.5002 36.0196 29.3949 36.2071 29.2073C36.3946 29.0198 36.5 28.7654 36.5 28.5002V24.1882C36.4997 21.8178 35.558 19.5445 33.882 17.8682L33.208 17.1922C33.1151 17.0991 33.0048 17.0252 32.8833 16.9748C32.7618 16.9244 32.6315 16.8984 32.5 16.8984C32.3685 16.8984 32.2382 16.9244 32.1167 16.9748C31.9952 17.0252 31.8849 17.0991 31.792 17.1922Z" fill="#333333"/>
<path id="Vector_3" fill-rule="evenodd" clip-rule="evenodd" d="M28.5 18C27.4391 18 26.4217 17.5786 25.6716 16.8284C24.9214 16.0783 24.5 15.0609 24.5 14C24.5 12.9391 24.9214 11.9217 25.6716 11.1716C26.4217 10.4214 27.4391 10 28.5 10C29.5609 10 30.5783 10.4214 31.3284 11.1716C32.0786 11.9217 32.5 12.9391 32.5 14C32.5 15.0609 32.0786 16.0783 31.3284 16.8284C30.5783 17.5786 29.5609 18 28.5 18ZM28.5 20C27.7121 20 26.9319 19.8448 26.2039 19.5433C25.4759 19.2417 24.8145 18.7998 24.2574 18.2426C23.7002 17.6855 23.2583 17.0241 22.9567 16.2961C22.6552 15.5681 22.5 14.7879 22.5 14C22.5 13.2121 22.6552 12.4319 22.9567 11.7039C23.2583 10.9759 23.7002 10.3145 24.2574 9.75736C24.8145 9.20021 25.4759 8.75825 26.2039 8.45672C26.9319 8.15519 27.7121 8 28.5 8C30.0913 8 31.6174 8.63214 32.7426 9.75736C33.8679 10.8826 34.5 12.4087 34.5 14C34.5 15.5913 33.8679 17.1174 32.7426 18.2426C31.6174 19.3679 30.0913 20 28.5 20ZM19.5 26.5C18.1739 26.5 16.9021 27.0268 15.9645 27.9645C15.0268 28.9021 14.5 30.1739 14.5 31.5V34.1C14.5 34.3652 14.3946 34.6196 14.2071 34.8071C14.0196 34.9946 13.7652 35.1 13.5 35.1C13.2348 35.1 12.9804 34.9946 12.7929 34.8071C12.6054 34.6196 12.5 34.3652 12.5 34.1V31.5C12.5 29.6435 13.2375 27.863 14.5503 26.5503C15.863 25.2375 17.6435 24.5 19.5 24.5C21.3565 24.5 23.137 25.2375 24.4497 26.5503C25.7625 27.863 26.5 29.6435 26.5 31.5V34.1C26.5 34.3652 26.3946 34.6196 26.2071 34.8071C26.0196 34.9946 25.7652 35.1 25.5 35.1C25.2348 35.1 24.9804 34.9946 24.7929 34.8071C24.6054 34.6196 24.5 34.3652 24.5 34.1V31.5C24.5 30.8434 24.3707 30.1932 24.1194 29.5866C23.8681 28.98 23.4998 28.4288 23.0355 27.9645C22.5712 27.5002 22.02 27.1319 21.4134 26.8806C20.8068 26.6293 20.1566 26.5 19.5 26.5Z" fill="#333333"/>
<path id="Vector_4" fill-rule="evenodd" clip-rule="evenodd" d="M19.5 23.5C20.5609 23.5 21.5783 23.0786 22.3284 22.3284C23.0786 21.5783 23.5 20.5609 23.5 19.5C23.5 18.4391 23.0786 17.4217 22.3284 16.6716C21.5783 15.9214 20.5609 15.5 19.5 15.5C18.4391 15.5 17.4217 15.9214 16.6716 16.6716C15.9214 17.4217 15.5 18.4391 15.5 19.5C15.5 20.5609 15.9214 21.5783 16.6716 22.3284C17.4217 23.0786 18.4391 23.5 19.5 23.5ZM19.5 25.5C21.0913 25.5 22.6174 24.8679 23.7426 23.7426C24.8679 22.6174 25.5 21.0913 25.5 19.5C25.5 17.9087 24.8679 16.3826 23.7426 15.2574C22.6174 14.1321 21.0913 13.5 19.5 13.5C17.9087 13.5 16.3826 14.1321 15.2574 15.2574C14.1321 16.3826 13.5 17.9087 13.5 19.5C13.5 21.0913 14.1321 22.6174 15.2574 23.7426C16.3826 24.8679 17.9087 25.5 19.5 25.5Z" fill="#333333"/>
</g>
</g>
</svg>
